{"title":"Koyelaanchal (2014) - 720p - DVDRip - Hindi - x264 - AC3 - 5.1 -","uid":11139276,"size":1233694203,"categoryP":"video","categoryS":"hd___movies","magnet":"?xt=urn:btih:9753509a879cb7215f93f0ade1916c9650ead523&amp;dn=Koyelaanchal+%282014%29+-+720p+-+DVDRip+-+Hindi+-+x264+-+AC3+-+5.1+-&amp;tr=udp%3A%2F%2Ftracker.openbittorrent.com%3A80&amp;tr=udp%3A%2F%2Fopen.demonii.com%3A1337&amp;tr=udp%3A%2F%2Ftracker.coppersurfer.tk%3A6969&amp;tr=udp%3A%2F%2Fexodus.desync.com%3A6969","seeders":5,"leechers":3,"uploader":"inovai","files":3,"time":1412150787,"description":"Koyelaanchal (2014) - 720p - DVDRip - Hindi - x264 - AC3 - 5.1 - ESubs - Mafiaking - TeamTNT ExClusive\n\nCover:\n  &lt;a href=&quot;\nhttp://forum.primetimeshow.in/viewtopic.php?f=7&amp;t=742&quot; rel=&quot;nofollow&quot; target=&quot;_NEW&quot;&gt;\nhttp://forum.primetimeshow.in/viewtopic.php?f=7&amp;t=742&lt;/a&gt;\n\nIMDB Rating: 5.8/10.0\n\n\nGENRE: Action | Drama\n\nScreenshots:\n &lt;a href=&quot;\nhttp://m.primetimeshow.in/share-C512_542B994B.html&quot; rel=&quot;nofollow&quot; target=&quot;_NEW&quot;&gt;\nhttp://m.primetimeshow.in/share-C512_542B994B.html&lt;/a&gt;\n &lt;a href=&quot;\nhttp://m.primetimeshow.in/share-77A4_542B994B.html&quot; rel=&quot;nofollow&quot; target=&quot;_NEW&quot;&gt;\nhttp://m.primetimeshow.in/share-77A4_542B994B.html&lt;/a&gt;\n &lt;a href=&quot;\nhttp://m.primetimeshow.in/share-706A_542B994B.html&quot; rel=&quot;nofollow&quot; target=&quot;_NEW&quot;&gt;\nhttp://m.primetimeshow.in/share-706A_542B994B.html&lt;/a&gt;\n &lt;a href=&quot;\nhttp://m.primetimeshow.in/share-741B_542B994B.html&quot; rel=&quot;nofollow&quot; target=&quot;_NEW&quot;&gt;\nhttp://m.primetimeshow.in/share-741B_542B994B.html&lt;/a&gt;\n &lt;a href=&quot;\nhttp://m.primetimeshow.in/share-73D9_542B994B.html&quot; rel=&quot;nofollow&quot; target=&quot;_NEW&quot;&gt;\nhttp://m.primetimeshow.in/share-73D9_542B994B.html&lt;/a&gt;\n\nGeneral\nUnique ID : 175670272718641186088742560708984169649 (0x8428DD25B74B0AE6B6A6BD5FEEC9E4B1)\nComplete name : Koyelaanchal (2014) - 720p - DVDRip - Hindi - x264 - AC3 - 5.1 - ESubs - Mafiaking - TeamTNT ExClusive.mkv\nFormat : Matroska\nFormat version : Version 4 / Version 2\nFile size : 1.14 GiB\nDuration : 2h 25mn\nOverall bit rate : 1 120 Kbps\nMovie name : Koyelaanchal (2014) - 720p - DVDRip - Hindi - x264 - AC3 - 5.1 - ESubs - Mafiaking - TeamTNT ExClusive\nEncoded date : UTC 2014-09-30 16:45:20\nWriting application : mkvmerge v7.0.0 ('Where We Going') 64bit built on Jun 9 2014 15:16:27\nWriting library : libebml v1.3.0 + libmatroska v1.4.1\n\n\nVideo\nID : 1\nFormat : AVC\nFormat/Info : Advanced Video Codec\nFormat profile : &lt;a class=&quot;__cf_email__&quot; href=&quot;/cdn-cgi/l/email-protection&quot; data-cfemail=&quot;d49cbdb3bc9498e0fae5&quot;&gt;[email&amp;#160;protected]&lt;/a&gt;&lt;script cf-hash='f9e31' type=&quot;text/javascript&quot;&gt;\n/* &lt;![CDATA[ */!function(){try{var t=&quot;currentScript&quot;in document?document.currentScript:function(){for(var t=document.getElementsByTagName(&quot;script&quot;),e=t.length;e--;)if(t[e].getAttribute(&quot;cf-hash&quot;))return t[e]}();if(t&amp;&amp;t.previousSibling){var e,r,n,i,c=t.previousSibling,a=c.getAttribute(&quot;data-cfemail&quot;);if(a){for(e=&quot;&quot;,r=parseInt(a.substr(0,2),16),n=2;a.length-n;n+=2)i=parseInt(a.substr(n,2),16)^r,e+=String.fromCharCode(i);e=document.createTextNode(e),c.parentNode.replaceChild(e,c)}}}catch(u){}}();/* ]]&gt; */&lt;/script&gt;\nFormat settings, CABAC : Yes\nFormat settings, ReFrames : 4 frames\nCodec ID : V_MPEG4/ISO/AVC\nDuration : 2h 25mn\nBit rate : 874 Kbps\nWidth : 1 280 pixels\nHeight : 544 pixels\nDisplay aspect ratio : 2.35:1\nFrame rate mode : Constant\nFrame rate : 25.000 fps\nColor space : YUV\nChroma subsampling : 4:2:0\nBit depth : 8 bits\nScan type : Progressive\nBits/(Pixel*Frame) : 0.050\nStream size : 908 MiB (78%)\nTitle : Mafiaking\nLanguage : Hindi\nDefault : Yes\nForced : No\n\n\nAudio\nID : 2\nFormat : AC-3\nFormat/Info : Audio Coding 3\nMode extension : CM (complete main)\nFormat settings, Endianness : Big\nCodec ID : A_AC3\nDuration : 2h 25mn\nBit rate mode : Constant\nBit rate : 224 Kbps\nChannel(s) : 6 channels\nChannel positions : Front: L C R, Side: L R, LFE\nSampling rate : 48.0 KHz\nBit depth : 16 bits\nCompression mode : Lossy\nDelay relative to video : 16ms\nStream size : 233 MiB (20%)\nTitle : Mafiaking\nLanguage : Hindi\nDefault : Yes\nForced : No\n\n\nSAMPLE WITH IN TORRENT\n\nThanks to Mafiaking - TeamTNT!!\n\nSeed n Enjoy!!","torrent":{"xt":"urn:btih:9753509a879cb7215f93f0ade1916c9650ead523","amp;dn":"Koyelaanchal+%282014%29+-+720p+-+DVDRip+-+Hindi+-+x264+-+AC3+-+5.1+-","amp;tr":["udp%3A%2F%2Ftracker.openbittorrent.com%3A80","udp%3A%2F%2Fopen.demonii.com%3A1337","udp%3A%2F%2Ftracker.coppersurfer.tk%3A6969","udp%3A%2F%2Fexodus.desync.com%3A6969"],"infoHash":"9753509a879cb7215f93f0ade1916c9650ead523","infoHashBuffer":{"type":"Buffer","data":[151,83,80,154,135,156,183,33,95,147,240,173,225,145,108,150,80,234,213,35]},"announce":[],"urlList":[]}}